<svg xmlns="http://www.w3.org/2000/svg" viewBox="0 0 620 400" fill="none" role="img" aria-label="Abstract hands passing a promise note">
  <rect width="620" height="400" rx="20" fill="#17383A"/>
  <g stroke="#137B78" stroke-opacity=".55" stroke-width="3">
    <path d="M0 300C120 258 200 330 320 300s200-96 300-142"/>
    <path d="M0 340C130 300 210 366 330 340s200-88 290-130"/>
  </g>

  <path d="M96 400c0-64 26-104 70-124 34-16 62-6 78 16 14 20 6 42-14 48-16 4-26-2-30-12-6 22-22 38-46 44"
        fill="#2E6E6B" stroke="#3F8C86" stroke-width="3" stroke-linejoin="round"/>
  <path d="M524 0c0 64-26 104-70 124-34 16-62 6-78-16-14-20-6-42 14-48 16-4 26 2 30 12 6-22 22-38 46-44"
        fill="#2E6E6B" stroke="#3F8C86" stroke-width="3" stroke-linejoin="round"/>

  <g transform="rotate(-8 310 200)">
    <rect x="228" y="132" width="164" height="136" rx="12" fill="#F4F1EB"/>
    <rect x="228" y="132" width="164" height="136" rx="12" fill="none" stroke="#DFE2DD" stroke-width="2"/>
    <g stroke="#16272D" stroke-opacity=".5" stroke-linecap="round" stroke-width="6">
      <path d="M252 166h74"/>
      <path d="M252 190h104"/>
      <path d="M252 214h58"/>
    </g>
    <path d="M252 244c26-14 46 10 72-4s40 8 62-6" stroke="#137B78" stroke-width="5" fill="none" stroke-linecap="round"/>
    <circle cx="366" cy="151" r="13" fill="#EDB661"/>
  </g>

  <g stroke="#EDB661" stroke-opacity=".85" stroke-width="5" fill="none" stroke-linecap="round">
    <path d="M186 292c46-16 74 12 114 0"/>
    <path d="M434 106c-46 16-74-12-114 0"/>
  </g>
</svg>
